<?xml version="1.0" encoding="UTF-8" standalone="no"?>
<svg width="56px" height="56px" viewBox="0 0 56 56" version="1.1" xmlns="http://www.w3.org/2000/svg" xmlns:xlink="http://www.w3.org/1999/xlink">
    <title>Jira Icon</title>
    <defs>
        <linearGradient x1="98.0308675%" y1="0.160599572%" x2="58.8877062%" y2="40.7655246%" id="linearGradient-1">
            <stop stop-color="#0052CC" offset="0%"></stop>
            <stop stop-color="#2684FF" offset="100%"></stop>
        </linearGradient>
        <linearGradient x1="100.665247%" y1="0.45503212%" x2="55.4430222%" y2="44.5406412%" id="linearGradient-2">
            <stop stop-color="#0052CC" offset="0%"></stop>
            <stop stop-color="#2684FF" offset="100%"></stop>
        </linearGradient>
    </defs>
    <g stroke="none" stroke-width="1" fill="none" fill-rule="evenodd">
        <g fill-rule="nonzero">
            <path d="M55.9839392,27.9997731 C55.9839392,43.4585104 43.4585104,55.9839392 27.9997731,55.9839392 C12.5410357,55.9839392 0.0156069,43.4585104 0.0156069,27.9997731 C0.0156069,12.5410357 12.5410357,0.0156069 27.9997731,0.0156069 C43.4585104,0.0156069 55.9839392,12.5410357 55.9839392,27.9997731 Z" fill="#2684FF"></path>
            <path d="M27.1053814,13.8932611 L18.2213786,22.7772639 L27.1053814,31.6612667 L35.9893842,22.7772639 L27.1053814,13.8932611 Z M27.1053814,40.5452695 L18.2213786,31.6612667 L27.1053814,22.7772639 L35.9893842,31.6612667 L27.1053814,40.5452695 Z" fill="#FFFFFF"></path>
            <path d="M27.1053814,22.7772639 L18.2213786,31.6612667 L27.1053814,40.5452695 C21.1420496,46.5086013 11.1580468,46.5086013 5.1947149,40.5452695 C-0.7686169,34.5819376 -0.7686169,24.5979348 5.1947149,18.634603 C11.1580468,12.6712711 21.1420496,12.6712711 27.1053814,18.634603 L27.1053814,22.7772639 Z" fill="url(#linearGradient-1)"></path>
            <path d="M35.9893842,31.6612667 L27.1053814,22.7772639 L27.1053814,18.634603 C33.0687132,12.6712711 43.052716,12.6712711 49.0160479,18.634603 C54.9793797,24.5979348 54.9793797,34.5819376 49.0160479,40.5452695 C43.052716,46.5086013 33.0687132,46.5086013 27.1053814,40.5452695 L35.9893842,31.6612667 Z" fill="url(#linearGradient-2)"></path>
        </g>
    </g>
</svg>
